<?xml version="1.0" encoding="utf-8"?>
<!-- Generator: Adobe Illustrator 21.0.0, SVG Export Plug-In . SVG Version: 6.00 Build 0)  -->
<svg version="1.1" id="Calque_1" xmlns="http://www.w3.org/2000/svg" xmlns:xlink="http://www.w3.org/1999/xlink" x="0px" y="0px"
	 viewBox="0 0 176 44.3" style="enable-background:new 0 0 176 44.3;" xml:space="preserve">
<style type="text/css">
	.st0{fill:#00E5C4;}
</style>
<rect x="4" y="4" class="st0" width="40.3" height="40.3"/>
<g>
	<path d="M2.7,31.9V5.3c0-0.5,0.2-0.8,0.6-1C3.7,4.1,4.2,4,4.8,4c0.6,0,1.1,0.1,1.5,0.3c0.4,0.2,0.6,0.6,0.6,1v24.2h10.4
		c0.4,0,0.7,0.2,0.9,0.6c0.2,0.4,0.3,0.8,0.3,1.3c0,0.5-0.1,1-0.3,1.3c-0.2,0.4-0.5,0.6-0.9,0.6H4.5c-0.5,0-0.9-0.1-1.3-0.4
		C2.8,32.7,2.7,32.3,2.7,31.9z"/>
	<path d="M20.2,28.3c0-2.1,0.8-3.6,2.4-4.5c1.6-0.8,3.9-1.3,7-1.3h1.8v-0.7c0-1.2-0.3-2.2-1-3.1c-0.7-0.9-1.7-1.3-3-1.3
		c-1.2,0-2.2,0.2-3,0.7s-1.3,0.7-1.4,0.7c-0.5,0-0.8-0.2-1.1-0.7c-0.3-0.4-0.4-0.9-0.4-1.5c0-0.7,0.6-1.3,1.9-1.8
		c1.3-0.5,2.7-0.8,4.1-0.8c2.8,0,4.8,0.7,6.1,2.2s2,3.3,2,5.6v10.1c0,0.4-0.2,0.7-0.6,1c-0.4,0.3-0.9,0.4-1.5,0.4
		c-0.5,0-1-0.1-1.4-0.4c-0.4-0.3-0.6-0.6-0.6-1v-1.4c-1.8,2.1-3.8,3.1-6.1,3.1c-1.6,0-2.8-0.5-3.8-1.4C20.7,31.4,20.2,30,20.2,28.3z
		 M24.4,27.8c0,0.9,0.2,1.5,0.7,1.9s1.1,0.7,1.9,0.7c1,0,2-0.4,2.9-1.3c0.9-0.9,1.4-1.8,1.4-2.7v-1.5h-1c-1.2,0-2.2,0.1-2.9,0.2
		c-0.8,0.1-1.4,0.4-2,0.8C24.8,26.4,24.4,27,24.4,27.8z"/>
	<path d="M56.5,31.9V5.3c0-0.5,0.2-0.8,0.6-1C57.5,4.1,58,4,58.6,4c0.6,0,1.1,0.1,1.5,0.3c0.4,0.2,0.6,0.6,0.6,1v24.2h10.4
		c0.4,0,0.7,0.2,0.9,0.6c0.2,0.4,0.3,0.8,0.3,1.3c0,0.5-0.1,1-0.3,1.3c-0.2,0.4-0.5,0.6-0.9,0.6H58.4c-0.5,0-0.9-0.1-1.3-0.4
		C56.7,32.7,56.5,32.3,56.5,31.9z"/>
	<path d="M74,28.3c0-2.1,0.8-3.6,2.4-4.5c1.6-0.8,3.9-1.3,7-1.3h1.8v-0.7c0-1.2-0.3-2.2-1-3.1c-0.7-0.9-1.7-1.3-3-1.3
		c-1.2,0-2.2,0.2-3,0.7s-1.3,0.7-1.4,0.7c-0.5,0-0.8-0.2-1.1-0.7c-0.3-0.4-0.4-0.9-0.4-1.5c0-0.7,0.6-1.3,1.9-1.8
		c1.3-0.5,2.7-0.8,4.1-0.8c2.8,0,4.8,0.7,6.1,2.2s2,3.3,2,5.6v10.1c0,0.4-0.2,0.7-0.6,1c-0.4,0.3-0.9,0.4-1.5,0.4
		c-0.5,0-1-0.1-1.4-0.4c-0.4-0.3-0.6-0.6-0.6-1v-1.4c-1.8,2.1-3.8,3.1-6.1,3.1c-1.6,0-2.8-0.5-3.8-1.4C74.5,31.4,74,30,74,28.3z
		 M78.3,27.8c0,0.9,0.2,1.5,0.7,1.9s1.1,0.7,1.9,0.7c1,0,2-0.4,2.9-1.3c0.9-0.9,1.4-1.8,1.4-2.7v-1.5h-1c-1.2,0-2.2,0.1-2.9,0.2
		c-0.8,0.1-1.4,0.4-2,0.8C78.6,26.4,78.3,27,78.3,27.8z"/>
	<path d="M93.3,7.3c0-0.6,0.2-1.1,0.7-1.6c0.5-0.4,1.1-0.6,1.7-0.6c0.7,0,1.2,0.2,1.7,0.6c0.5,0.4,0.7,0.9,0.7,1.6
		c0,0.6-0.2,1.1-0.7,1.5s-1.1,0.7-1.7,0.7c-0.7,0-1.2-0.2-1.7-0.7S93.3,7.9,93.3,7.3z M93.7,31.9V15.7c0-0.4,0.2-0.7,0.6-1
		c0.4-0.3,0.9-0.4,1.5-0.4c0.6,0,1.1,0.1,1.5,0.4c0.4,0.3,0.6,0.6,0.6,1v16.3c0,0.3-0.2,0.7-0.6,1c-0.4,0.3-0.9,0.4-1.5,0.4
		c-0.6,0-1.1-0.1-1.5-0.4C93.9,32.6,93.7,32.3,93.7,31.9z"/>
	<path d="M102.3,27.1V6.9c0-0.4,0.2-0.7,0.6-1c0.4-0.3,0.9-0.4,1.4-0.4c0.5,0,1,0.1,1.5,0.4c0.4,0.3,0.7,0.6,0.7,1v7.3h4.9
		c0.3,0,0.6,0.2,0.8,0.5c0.2,0.3,0.3,0.7,0.3,1.1c0,0.4-0.1,0.8-0.3,1.1c-0.2,0.3-0.5,0.5-0.8,0.5h-4.9v9.6c0,1,0.2,1.6,0.6,2
		c0.4,0.4,1.1,0.6,2.2,0.6h1.4c0.6,0,1,0.2,1.3,0.5c0.3,0.3,0.5,0.8,0.5,1.3c0,0.5-0.2,0.9-0.5,1.3c-0.3,0.3-0.8,0.5-1.3,0.5h-1.4
		C104.7,33.3,102.3,31.2,102.3,27.1z"/>
	<path d="M114.6,25.6v-3.8c0-2.1,0.8-3.9,2.4-5.5c1.6-1.5,3.6-2.3,5.9-2.3c2.2,0,4.1,0.7,5.6,2.1c1.6,1.4,2.3,3.1,2.3,5.3
		c0,0.8-0.1,1.5-0.3,2c-0.2,0.5-0.5,0.9-0.9,1.1c-0.4,0.2-0.8,0.3-1.1,0.4c-0.3,0.1-0.8,0.1-1.4,0.1h-8.5v0.9c0,1.3,0.5,2.4,1.4,3.2
		c1,0.8,2.2,1.2,3.8,1.2c1.1,0,2.1-0.3,3.1-0.8c1-0.5,1.6-0.8,1.8-0.8c0.5,0,0.8,0.2,1.2,0.6s0.5,0.8,0.5,1.2c0,0.7-0.6,1.3-1.9,2
		c-1.3,0.7-2.9,1-4.7,1c-2.7,0-5-0.7-6.7-2.2C115.5,30,114.6,28,114.6,25.6z M118.8,22.2h6.7c0.6,0,1-0.1,1.2-0.2
		c0.2-0.2,0.3-0.5,0.3-0.9c0-1.1-0.4-1.9-1.2-2.7c-0.8-0.7-1.7-1.1-2.9-1.1c-1.1,0-2.1,0.3-2.9,1c-0.8,0.7-1.2,1.6-1.2,2.7V22.2z"/>
	<path d="M134.4,31.9V15.7c0-0.4,0.2-0.7,0.6-1c0.4-0.3,0.9-0.4,1.5-0.4c0.5,0,1,0.1,1.4,0.4c0.4,0.3,0.6,0.6,0.6,1v1.8
		c0.5-0.9,1.1-1.8,2.1-2.4c0.9-0.7,1.9-1,3-1h1.3c0.4,0,0.8,0.2,1.1,0.5c0.3,0.4,0.5,0.8,0.5,1.3c0,0.5-0.2,1-0.5,1.3
		c-0.3,0.4-0.7,0.6-1.1,0.6h-1.3c-1.3,0-2.4,0.5-3.4,1.6c-1,1.1-1.5,2.5-1.5,4.2v8.2c0,0.3-0.2,0.7-0.6,1s-0.9,0.4-1.5,0.4
		c-0.6,0-1.1-0.1-1.5-0.4C134.6,32.6,134.4,32.3,134.4,31.9z"/>
	<path d="M148.5,7.3c0-0.6,0.2-1.1,0.7-1.6c0.5-0.4,1.1-0.6,1.7-0.6c0.7,0,1.2,0.2,1.7,0.6c0.5,0.4,0.7,0.9,0.7,1.6
		c0,0.6-0.2,1.1-0.7,1.5s-1.1,0.7-1.7,0.7c-0.7,0-1.2-0.2-1.7-0.7S148.5,7.9,148.5,7.3z M148.9,31.9V15.7c0-0.4,0.2-0.7,0.6-1
		c0.4-0.3,0.9-0.4,1.5-0.4c0.6,0,1.1,0.1,1.5,0.4c0.4,0.3,0.6,0.6,0.6,1v16.3c0,0.3-0.2,0.7-0.6,1c-0.4,0.3-0.9,0.4-1.5,0.4
		c-0.6,0-1.1-0.1-1.5-0.4C149.1,32.6,148.9,32.3,148.9,31.9z"/>
	<path d="M156.8,25.6v-3.8c0-2.1,0.8-3.9,2.4-5.5c1.6-1.5,3.6-2.3,5.9-2.3c2.2,0,4.1,0.7,5.6,2.1c1.6,1.4,2.3,3.1,2.3,5.3
		c0,0.8-0.1,1.5-0.3,2c-0.2,0.5-0.5,0.9-0.9,1.1c-0.4,0.2-0.8,0.3-1.1,0.4c-0.3,0.1-0.8,0.1-1.4,0.1H161v0.9c0,1.3,0.5,2.4,1.4,3.2
		c1,0.8,2.2,1.2,3.8,1.2c1.1,0,2.1-0.3,3.1-0.8c1-0.5,1.6-0.8,1.8-0.8c0.5,0,0.8,0.2,1.2,0.6s0.5,0.8,0.5,1.2c0,0.7-0.6,1.3-1.9,2
		c-1.3,0.7-2.9,1-4.7,1c-2.7,0-5-0.7-6.7-2.2C157.7,30,156.8,28,156.8,25.6z M161,22.2h6.7c0.6,0,1-0.1,1.2-0.2
		c0.2-0.2,0.3-0.5,0.3-0.9c0-1.1-0.4-1.9-1.2-2.7c-0.8-0.7-1.7-1.1-2.9-1.1c-1.1,0-2.1,0.3-2.9,1c-0.8,0.7-1.2,1.6-1.2,2.7V22.2z"/>
</g>
</svg>
